HIERARCHY
ROOT Hips
{
  OFFSET 57.8838 95.319 338.509
  CHANNELS 6 Xposition Yposition Zposition Zrotation Xrotation Yrotation
  JOINT LeftUpLeg
  {
    OFFSET 8.64259 1.95398 -2.38835
    CHANNELS 3 Zrotation Xrotation Yrotation
    JOINT LeftLeg
    {
      OFFSET 43.7702 0 0
      CHANNELS 3 Zrotation Xrotation Yrotation
      JOINT LeftFoot
      {
        OFFSET 40.6238 0 0
        CHANNELS 3 Zrotation Xrotation Yrotation
        JOINT LeftToeBase
        {
          OFFSET 12.7242 0 0
          CHANNELS 3 Zrotation Xrotation Yrotation
          End Site
          {
            OFFSET 0 0 0
          }
        }
      }
    }
  }
  JOINT RightUpLeg
  {
    OFFSET -8.2249 1.95398 -2.59336
    CHANNELS 3 Zrotation Xrotation Yrotation
    JOINT RightLeg
    {
      OFFSET 43.5653 0 0
      CHANNELS 3 Zrotation Xrotation Yrotation
      JOINT RightFoot
      {
        OFFSET 40.6238 0 0
        CHANNELS 3 Zrotation Xrotation Yrotation
        JOINT RightToeBase
        {
          OFFSET 12.7242 0 0
          CHANNELS 3 Zrotation Xrotation Yrotation
          End Site
          {
            OFFSET 0 0 0
          }
        }
      }
    }
  }
  JOINT Spine
  {
    OFFSET 0.165834 0.87714 6.61349
    CHANNELS 3 Zrotation Xrotation Yrotation
    JOINT Spine1
    {
      OFFSET 7.38963 1.71661e-005 0
      CHANNELS 3 Zrotation Xrotation Yrotation
      JOINT Spine2
      {
        OFFSET 11.9445 1.14441e-005 0
        CHANNELS 3 Zrotation Xrotation Yrotation
        JOINT Spine3
        {
          OFFSET 14.7254 4.19617e-005 0
          CHANNELS 3 Zrotation Xrotation Yrotation
          JOINT Spine4
          {
            OFFSET 10.9679 0 0
            CHANNELS 3 Zrotation Xrotation Yrotation
            JOINT RightShoulder
            {
              OFFSET 2.46616 -1.6653 3.69651
              CHANNELS 3 Zrotation Xrotation Yrotation
              JOINT RightArm
              {
                OFFSET 13.0012 0 0
                CHANNELS 3 Zrotation Xrotation Yrotation
                JOINT RightForeArm
                {
                  OFFSET 28.7848 1.62311e-005 0
                  CHANNELS 3 Zrotation Xrotation Yrotation
                  JOINT RightHand
                  {
                    OFFSET 26.5688 1.62095e-005 0
                    CHANNELS 3 Zrotation Xrotation Yrotation
                    End Site
                    {
                      OFFSET 0 0 0
                    }
                  }
                }
              }
            }
            JOINT LeftShoulder
            {
              OFFSET 2.38034 -1.29275 -3.7523
              CHANNELS 3 Zrotation Xrotation Yrotation
              JOINT LeftArm
              {
                OFFSET 16.3182 6.07031e-005 0
                CHANNELS 3 Zrotation Xrotation Yrotation
                JOINT LeftForeArm
                {
                  OFFSET 27.0901 0 0
                  CHANNELS 3 Zrotation Xrotation Yrotation
                  JOINT LeftHand
                  {
                    OFFSET 24.5451 1.51738e-005 0
                    CHANNELS 3 Zrotation Xrotation Yrotation
                    End Site
                    {
                      OFFSET 0 0 0
                    }
                  }
                }
              }
            }
            JOINT Neck
            {
              OFFSET 5.0226 -0.0266342 0
              CHANNELS 3 Zrotation Xrotation Yrotation
              JOINT Head
              {
                OFFSET 6.69364 2.86102e-005 0
                CHANNELS 3 Zrotation Xrotation Yrotation
                End Site
                {
                  OFFSET 0 0 0
                }
              }
            }
          }
        }
      }
    }
  }
}
MOTION
Frames:	12
Frame Time:	0.0416667
-369.652 57.1996 3.6172 -38.433 0.779038 84.207 61.5488 26.8348 178.094 70.2855 21.416 97.2481 13.7386 -20.2021 -69.7127 -2.7592 -17.8775 11.1812 -13.0644 -33.4729 -109.705 -84.5387 -36.5957 18.4186 48.3135 -45.1108 8.19523 92.5275 21.4766 144.255 -0.836719 9.06452 -108.89 5.71342 -9.39917 -37.0605 -6.43021 -10.9132 -36.699 -24.8829 1.31394 -38.0482 -4.87024 1.31394 -38.0482 157.127 -35.8128 6.83824 99.7621 -39.8782 2.14581 -46.5712 -66.3216 -2.37437 33.07 6.93526 17.6332 -72.4043 36.8174 23.6449 -45.3177 29.1565 -77.8066 176.177 54.2517 -179.992 52.1503 -19.4807 -42.3413 -25.4796 -43.1322 -137.458 85.5657 54.1627 74.4596 
-371.092 57.2587 3.19079 -38.5294 1.02954 84.0054 60.9985 27.0017 178.604 83.0174 22.481 92.5596 12.0088 -12.8468 -76.3122 -4.20961 -18.0887 9.76467 -12.3531 -34.0466 -109.159 -86.877 -34.9843 17.0552 48.7422 -47.9946 8.59842 90.9496 21.0495 144.71 -0.866229 9.04164 -108.886 5.74973 -9.46276 -37.0515 -6.3932 -10.9764 -36.6876 -24.8479 1.25007 -38.0548 -4.83526 1.25009 -38.0548 157.163 -35.8489 6.85205 99.7991 -41.5223 2.75881 -46.2303 -65.2215 -0.858213 32.809 6.72687 17.143 -72.8778 36.2902 23.443 -48.0638 28.8071 -76.4053 178.611 52.1359 -179.997 53.3013 -20.0054 -42.424 -25.3771 -43.1985 -137.303 85.0975 53.9455 74.8085 
-375.387 57.4878 1.91212 -38.7783 1.7993 83.409 53.6346 24.645 -177.179 -28.5734 -17.1505 106.03 158.28 -50.9152 90.8776 -7.94561 -18.5912 6.36455 -10.1107 -35.4903 -107.177 -93.4894 -28.9826 13.0107 50.4636 -57.6255 10.2676 87.1441 19.5104 144.985 -0.96113 8.97101 -108.876 5.86093 -9.66672 -37.0232 -6.27984 -11.1792 -36.6518 -24.741 1.04539 -38.0767 -4.72835 1.04539 -38.0767 157.25 -35.934 6.8874 100.105 -46.1879 4.82001 -48.6143 -60.6467 -0.0139304 32.3056 6.13945 15.5054 -74.2489 34.7671 22.8475 -56.0674 27.2964 -72.4027 -174.206 46.1423 179.987 56.5128 -21.3842 -42.4562 -25.0536 -43.423 -136.858 83.5925 53.2718 75.9547 
-381.916 57.9202 -0.0480467 -39.0685 3.05568 82.5077 28.0193 2.87098 -154.963 -81.8798 -36.7724 53.8537 -179.667 -35.8403 68.2176 -12.3172 -19.1573 2.86986 -6.40336 -36.8659 -103.101 -102.045 -16.1805 7.12151 55.2162 -75.8322 14.4245 86.5382 16.6709 140.567 -1.12339 8.85545 -108.86 6.04069 -10.0138 -36.9765 -6.09635 -11.5245 -36.5921 -24.5686 0.697397 -38.1152 -4.556 0.697392 -38.1153 157.336 -36.0179 6.92274 101.308 -52.7048 8.80505 -53.4566 -52.7799 -0.0399144 32.2789 5.28069 12.5349 -76.2936 32.509 21.9504 -67.6939 23.7108 -66.9373 -163.456 37.3499 179.969 60.9407 -23.0379 -42.0303 -24.5336 -43.789 -136.21 81.0931 52.1355 77.8886 
-389.985 58.4036 -2.50398 -39.2703 4.81744 81.3739 20.5648 -13.8021 -124.591 -111.802 -9.64726 10.4173 178.415 -29.8052 34.6032 -16.3672 -19.7657 0.195479 -2.03173 -36.9956 -97.213 -109.167 2.35934 0.747527 -110.518 -77.102 -155.276 97.717 10.8838 125.665 -1.3583 8.6967 -108.838 6.28465 -10.5139 -36.9085 -5.84679 -12.0218 -36.5055 -24.3363 0.195857 -38.1704 -4.32367 0.195856 -38.1704 157.382 -36.0762 6.9303 104.709 -59.9097 15.8671 -59.4799 -41.3683 -0.0328332 33.3503 4.14454 7.99502 -78.8585 29.7028 20.8277 -80.9288 17.3551 -61.555 -150.612 26.0868 179.953 65.8329 -24.4891 -40.9918 -23.8644 -44.2214 -135.438 77.7196 50.4517 80.4998 
-398.928 58.902 -5.30587 -39.2044 7.13079 80.0481 15.2585 -15.685 -101.815 -113.897 12.3528 -0.347148 172.324 -24.8167 14.4971 -19.8873 -20.5022 -1.52914 0.447197 -35.1267 -92.8736 -113.903 17.8571 -4.17565 -92.4767 -50.4551 -147.586 116.379 -2.50398 107.381 -1.67453 8.49916 -108.806 6.583 -11.1813 -36.8113 -5.5406 -12.6854 -36.3832 -24.0564 -0.474877 -38.2383 -4.0438 -0.474889 -38.2383 157.379 -36.1366 6.87606 112.644 -66.5289 28.141 -65.6385 -23.9628 -0.0273488 35.7744 2.57042 1.72303 -81.8286 26.4912 19.5563 -93.7408 8.42119 -57.699 -137.687 11.9484 179.941 70.518 -25.5196 -39.5456 -23.1357 -44.5692 -134.63 73.7286 48.0899 83.5189 
-408.145 59.7206 -8.32779 -38.5987 10.0678 78.4793 10.7257 -11.5286 -73.9649 -112.205 39.7841 -18.9597 153.526 -18.806 -20.6603 -22.9171 -21.4129 -2.44908 -0.127654 -30.8678 -91.6672 -116.976 36.4654 -7.29453 -79.3061 -39.3665 -152.856 127.879 -13.5991 96.5184 -2.05864 10.7235 -110.806 4.7047 -12.8897 -41.9142 -7.66183 -14.5148 -41.4402 -23.8887 -1.53237 -43.6136 -3.8761 -1.53236 -43.6136 156.964 -36.6365 5.98189 132.21 -69.4365 52.1906 -68.7595 2.68013 -0.0251752 39.2726 0.212532 -6.09063 -86.8598 21.2164 18.0776 -110.838 -1.3083 -50.5782 -123.4 -12.6608 179.925 74.7486 -25.8827 -37.5311 -25.3023 -40.1925 -134.443 73.4652 44.2557 82.5967 
-416.932 60.624 -11.3273 -37.0569 13.7115 76.4208 -12.1252 39.4735 -27.3453 82.7261 -24.5224 -93.6012 80.1822 9.34312 64.3084 -25.4093 -22.4026 -2.7999 -3.02296 -23.2732 -92.0675 -115.512 60.9112 -12.7937 -73.873 -49.277 -166.817 131.898 -20.3429 91.188 2.73876 9.80372 -72.0964 3.95586 12.5427 35.2146 -8.11392 13.9887 34.7272 -26.9844 2.17542 37.0533 -6.97178 2.17541 37.0533 162.688 -32.267 16.4276 -0.778949 -76.0135 -69.1219 -69.4553 29.2344 -0.0287177 41.9716 -3.33191 -15.3117 -65.2979 43.6283 21.3216 -26.8674 28.7694 -120.426 -171.741 68.6746 179.966 72.4474 -32.0308 -46.249 120.238 -60.6893 -1.85513 22.5732 23.0347 129.668 
-425.225 60.243 -14.1377 -34.0469 18.0757 73.3142 -30.2639 38.9549 -14.9125 81.24 -26.7738 -94.1053 82.7174 5.07411 56.5571 -27.297 -23.2885 -2.86593 -8.10011 -13.0484 -93.1434 -106.862 76.5705 -25.8402 -70.2466 -70.2356 -169.846 132.148 -21.9706 89.8826 2.65623 11.9384 -74.7524 0.483059 10.8742 30.266 -11.4825 12.1368 29.8213 -31.2807 1.79188 31.9415 -11.2681 1.7919 31.9415 179.371 -45.6402 23.4951 -21.705 -40.8429 -66.1482 -65.03 49.8989 -0.038314 44.0808 -8.33927 -26.3868 -66.2203 45.3208 33.078 -0.868307 -9.50603 -137.86 -10.516 71.4563 -0.0498399 68.1922 -33.6522 -51.1861 129.708 7.73998 17.1423 1.90842 -27.8853 124.312 
-432.834 60.1506 -16.6849 -28.8072 22.9301 68.1949 -45.3842 38.1377 -3.91493 79.2996 -28.2891 -95.2795 84.9072 3.50856 51.5088 -28.6052 -23.9155 -2.90345 -15.1175 -0.0127832 -90.0016 -92.0884 81.8905 -42.8566 43.7793 -84.2 -53.0829 130.699 -19.9402 91.199 2.74949 12.7019 -74.8779 -0.983211 10.8396 30.1347 -12.9457 12.0977 29.691 -32.7722 1.78651 31.8068 -12.7595 1.78653 31.8068 -178.319 -47.9564 24.1612 -23.4154 -42.0866 -59.8817 -56.0323 59.0657 -0.0466053 44.1719 -12.6092 -35.834 -64.6934 46.5202 30.9697 -0.0452506 -9.94466 -136.544 -11.9394 61.857 -0.0369104 64.5824 -35.4278 -56.4663 131.929 5.25123 16.5869 2.95135 -32.8776 123.877 
-439.011 59.7689 -18.6356 -20.1445 27.3992 59.7266 -59.8033 38.2137 8.53237 77.9116 -30.0558 -96.2815 86.9137 4.60904 48.6666 -29.3954 -24.1808 -3.09523 -25.6942 15.8727 -89.299 -87.1383 82.5682 -48.5225 80.0967 -62.7585 -10.1047 128.182 -15.7884 94.2081 2.8858 13.568 -75.1731 -2.66661 10.7821 29.7144 -14.6202 12.0241 29.2715 -34.5213 1.83858 31.3931 -14.5087 1.83859 31.3931 -173.799 -52.4293 25.4973 -26.2323 -41.759 -53.2627 -47.8387 61.1683 -0.0473741 42.4092 -15.636 -44.0517 -65.137 45.9832 30.7632 0.399652 -9.38704 -133.974 -13.5657 50.8694 -0.0306765 57.8054 -35.3027 -62.4872 133.834 2.66465 15.792 2.3343 -37.3843 121.132 
-443.088 58.7746 -19.6669 -6.8115 29.1213 47.0009 -75.95 39.3687 25.1022 78.4542 -32.5228 -96.4218 88.7079 8.7276 48.5343 -29.6668 -23.9861 -3.57375 -43.6066 32.9755 -79.5171 -90.9072 80.9306 -43.7612 80.9992 -40.6741 -0.831267 124.791 -11.109 97.8668 3.21798 14.3215 -75.4905 -4.18187 11.1341 29.2875 -16.1232 12.3594 28.8289 -36.1065 2.28805 31.0805 -16.0938 2.28802 31.0805 -168.259 -58.2418 27.0148 -30.0902 -43.9215 -46.3261 -40.9717 60.0865 -0.0409524 39.454 -17.1083 -50.4349 -68.559 42.3694 31.9483 -2.1434 -2.80671 -129.338 -13.3056 45.5441 -0.0282935 50.8407 -32.2826 -65.0443 135.559 -5.81556 12.9121 1.95314 -38.0318 117.829 
